<?xml version="1.0" encoding="UTF-8" standalone="no"?>
<svg xmlns:svg="http://www.w3.org/2000/svg" xmlns="http://www.w3.org/2000/svg" width="740px" height="760px" id="svg3153" version="1.1">
  <g>
    <path id="path2995" d="m 155.15802,746.78336 138.58581,0 0,-223.74004 c 0,0 -129.22455,-2.00669 -139.46966,-119.83043 -6.4497,-74.17475 50.24612,-115.02647 109.59583,-138.81633 1.38107,-74.0398 1.43176,-220.969067 2.65152,-252.472225 -85.39629,2.333317 -131.69176,28.63086 -131.69176,28.63086 l 66.2878,180.461255 c 0,0 -134.702915,46.13306 -129.040254,162.24159 6.110195,125.28472 142.297814,161.37398 142.297814,161.37398 z" style="fill:#000070;fill-opacity:1;stroke:none"/>
    <path id="path5231" d="m 325.1773,746.78336 c 0,0 134.85033,0 193.61041,0 C 467.72119,645.01319 363.89939,440.4487 363.89939,440.4487 c 0,0 68.80405,-41.11969 67.97875,-121.32921 -0.67716,-65.81188 -72.28121,-107.56132 -72.28121,-107.56132 0,0 39.97025,-120.945511 59.17728,-178.167458 C 361.14563,6.4998833 293.33915,8.4823724 293.33915,8.4823724 L 292.47866,287.28134 c 0,0 -107.86075,20.48739 -105.84035,106.70083 2.39201,102.07057 139.39949,92.93304 139.39949,92.93304 z" style="fill:#ff6600;fill-opacity:1;stroke:none"/>
    <path id="path5233" d="m 557.39403,746.78336 115.93929,0 -186.49949,-252.12374 c 0,0 129.78995,-105.59818 118.74774,-222.00662 C 594.92135,160.27231 528.16783,88.839652 454.99564,49.785916 395.22315,199.70571 394.76131,200.37178 394.76131,200.37178 c 0,0 74.71462,52.68064 74.00217,128.21311 -0.67739,71.82033 -69.69972,110.14281 -69.69972,110.14281 z" style="fill:#000070;fill-opacity:1;stroke:none"/>
  </g>
</svg>
